<?xml version="1.0" encoding="UTF-8"?>
<svg version="1.1" xmlns="http://www.w3.org/2000/svg" width="512" height="512">
<path d="M0 0 C3.72944274 1.56373002 6.14284777 3.86410121 9.01217651 6.68418884 C9.50294808 7.1640792 9.99371964 7.64396956 10.49936306 8.13840204 C12.1409144 9.74624553 13.77529788 11.36117799 15.40966797 12.97631836 C16.58557114 14.13150134 17.76181357 15.28633905 18.93836975 16.44085693 C22.79772197 20.2323605 26.64595563 24.03503664 30.4921875 27.83984375 C31.14687216 28.48728523 31.80155683 29.1347267 32.47608042 29.80178761 C38.65008624 35.90861783 44.81958412 42.01997221 50.97916985 48.14134884 C58.85597377 55.96863398 66.75364993 63.77347102 74.68114936 71.54941648 C80.25544001 77.0207189 85.80465423 82.51667082 91.33593667 88.03144556 C94.63990365 91.32419493 97.95396772 94.60503102 101.29540634 97.85978508 C104.4382382 100.92210552 107.54886503 104.01380082 110.63761711 107.13063049 C111.77525172 108.26788235 112.92405242 109.39409114 114.08456993 110.50798225 C122.85197775 118.9415272 122.85197775 118.9415272 123.22023392 124.06268501 C122.72420015 126.86611359 121.97715285 129.33256269 121 132 C118.83062154 147.98489394 121.19497148 162.29797192 130 176 C133.3527447 180.29411184 137.18155843 184.12473639 141 188 C142.17948573 189.32200692 143.34791135 190.65405028 144.5 192 C148.653959 196.78694322 152.95242735 201.44147209 157.25463867 206.0949707 C158.54065901 207.49863789 159.81520321 208.91284034 161.08325195 210.33276367 C169.69365957 219.89301666 178.80115664 228.9524933 187.9074707 238.0378418 C190.69533374 240.8203186 193.47777742 243.6081351 196.25976562 246.39648438 C198.05176259 248.18782092 199.84406953 249.97884744 201.63671875 251.76953125 C202.86825935 253.0041082 202.86825935 253.0041082 204.12467957 254.2636261 C208.38352466 258.50536421 212.71138614 262.60127748 217.27400208 266.51554871 C219.90838218 268.78125766 222.44786358 271.14204787 225 273.5 C226.99846913 275.33500926 228.99932041 277.16739918 231 279 C231.72445312 279.66515625 232.44890625 280.3303125 233.1953125 281.015625 C246.36144512 292.8491531 260.12836961 299.78467915 278 300 C283.89543856 299.55725955 289.61531253 298.58065896 295.35706425 297.18257236 C299 297 299 297 301.75103664 298.76665401 C303.07980123 300.10648012 303.07980123 300.10648012 304.43540955 301.47337341 C304.93550036 301.96662882 305.43559116 302.45988423 305.95083624 302.96808678 C307.62085633 304.6249342 309.26068474 306.30874164 310.90209961 307.99389648 C312.09351645 309.18757002 313.2866979 310.3794845 314.48150635 311.56976318 C317.72022047 314.80618007 320.93366225 318.06668598 324.14317775 321.33202624 C327.50142547 324.74025324 330.88231203 328.12586794 334.26087952 331.51393127 C340.65522201 337.93314784 347.02889767 344.3724858 353.39542729 350.81927496 C360.64445735 358.15769565 367.91619194 365.47343774 375.18993747 372.78734863 C390.15205467 387.83310727 405.08538106 402.90716556 420 418 C409.00500578 431.5459335 390.76029566 435.96559148 374 438 C368.17270235 438.48308238 362.34327397 438.4872471 356.5 438.4375 C355.72208099 438.43412628 354.94416199 438.43075256 354.14266968 438.42727661 C318.93560334 438.20780189 283.09231926 428.69275713 252.01904297 412.06835938 C249.88228407 410.93771162 247.7272237 409.8495317 245.56640625 408.765625 C226.2199229 398.97032349 208.37527667 386.92235693 191 374 C189.63042432 372.99189401 188.26063555 371.98407743 186.890625 370.9765625 C169.12000385 357.84418523 152.09318454 343.70386519 135.89453125 328.67578125 C134.05083708 326.97142159 132.19521787 325.27980811 130.32421875 323.60546875 C123.39846116 317.38502169 116.77863781 310.88484667 110.1875 304.3125 C109.29168213 303.42127441 108.39586426 302.53004883 107.47290039 301.61181641 C103.00894125 297.13744788 98.68349762 292.60760766 94.56665039 287.81176758 C92.16272963 285.0317308 89.63890371 282.36767166 87.125 279.6875 C82.61768528 274.84174969 78.33061802 269.87503817 74.1875 264.7109375 C71.96233446 261.95332163 69.67223453 259.26023923 67.375 256.5625 C60.22010396 247.98771762 53.63064978 238.98195628 47 230 C46.42282227 229.22285645 45.84564453 228.44571289 45.25097656 227.64501953 C33.72830584 212.10849576 23.31329257 195.9675509 14.07666016 178.96826172 C12.98920662 176.98026843 11.87682834 175.007745 10.76171875 173.03515625 C4.3261885 161.47814963 -0.45483834 149.40605601 -5 137 C-5.26296875 136.29101562 -5.5259375 135.58203125 -5.796875 134.8515625 C-9.8459743 123.8290144 -12.61958938 112.4853234 -15 101 C-15.16806152 100.1941748 -15.33612305 99.38834961 -15.50927734 98.55810547 C-20.99970871 70.8897451 -22.11654957 34.80626366 -7.125 9.8828125 C-5.48370357 7.52344888 -3.78128612 5.25415331 -2 3 C-1.34 2.01 -0.68 1.02 0 0 Z " fill="#fff" transform="translate(18,74)"/>
<path d="M0 0 C0.98097656 0.00128906 1.96195313 0.00257812 2.97265625 0.00390625 C11.06754696 1.18774402 15.86814084 6.92966983 21.38354492 12.46362305 C22.31594498 13.38755356 23.24834503 14.31148407 24.20899963 15.26341248 C26.75730952 17.78956685 29.29595741 20.32522056 31.8322618 22.86342216 C33.95438679 24.98566712 36.08084218 27.10354756 38.20718366 29.2215665 C43.22550267 34.22067309 48.23563044 39.22788761 53.2409668 44.23999023 C58.39576496 49.40142853 63.56513825 54.5479341 68.74176329 59.687473 C73.19422567 64.1091968 77.63691835 68.54057551 82.07209283 72.97963935 C84.71740069 75.6270103 87.36630441 78.27050699 90.02489281 80.90454674 C92.99068968 83.84385699 95.93587784 86.80302487 98.87963867 89.7644043 C99.75709747 90.62859985 100.63455627 91.49279541 101.53860474 92.38317871 C107.2772473 98.20190389 110.3417502 102.67150159 111.375 110.9375 C110.22980245 120.09908038 104.34765466 125.5519273 98.0078125 131.6875 C97.13986053 132.54504883 96.27190857 133.40259766 95.37765503 134.28613281 C92.61533042 137.01300045 89.8399763 139.72607374 87.0625 142.4375 C84.29391764 145.15060458 81.52840874 147.86666692 78.76876831 150.58886719 C77.05587801 152.27750435 75.33766984 153.96077019 73.61331177 155.63769531 C68.89671177 160.27606029 64.71261597 165.0001218 60.9375 170.4375 C57.23036297 168.88497182 54.87680219 166.62342405 52.05267334 163.79318237 C51.57556357 163.31778145 51.09845379 162.84238053 50.60688615 162.35257351 C49.01145446 160.76043269 47.42327032 159.16125541 45.83496094 157.56201172 C44.69195795 156.41844453 43.54851427 155.27531767 42.40466309 154.13259888 C39.30133097 151.02984093 36.20420692 147.92095212 33.10814953 144.8109374 C29.87126811 141.56155936 26.62872771 138.31783856 23.38677979 135.07351685 C17.24885137 128.92937053 11.11603932 122.78014344 4.98504281 116.62908089 C-1.99525227 109.62643648 -8.98122253 102.62946555 -15.96767855 95.63296866 C-30.33894899 81.2407892 -44.7030669 66.84148925 -59.0625 52.4375 C-57.4342799 48.99641093 -55.60352885 46.72029941 -52.9074707 44.0078125 C-51.62021843 42.70626221 -51.62021843 42.70626221 -50.30696106 41.37841797 C-49.37679672 40.44916504 -48.44663239 39.51991211 -47.48828125 38.5625 C-46.52119881 37.59152711 -45.55433926 36.62033218 -44.58769226 35.64892578 C-42.56096166 33.61474062 -40.53040868 31.58446478 -38.49731445 29.55664062 C-35.9043454 26.96945107 -33.32288718 24.37111 -30.7444582 21.7694397 C-28.74987276 19.76005004 -26.7483255 17.75770727 -24.74477196 15.75726318 C-23.32969552 14.34142974 -21.92115997 12.91906854 -20.51277161 11.49658203 C-8.75930975 -0.17310889 -8.75930975 -0.17310889 0 0 Z " fill="#fff" transform="translate(101.0625,-0.4375)"/>
<path d="M0 0 C3.42391219 2.87264504 6.54776786 6.0109813 9.68896484 9.18725586 C10.62326324 10.11615128 11.55756165 11.04504669 12.52017212 12.00209045 C15.06622929 14.53426332 17.59964972 17.07873147 20.13048124 19.62611079 C22.78710795 22.29665001 25.453946 24.95695932 28.11929321 27.61878967 C32.58965556 32.08645596 37.05189174 36.56211364 41.50927734 41.04272461 C46.65893366 46.21902754 51.82095345 51.38274236 56.98980939 56.5398683 C61.97096561 61.51024077 66.94359187 66.48906213 71.91228104 71.47189522 C74.02356211 73.5889268 76.13772165 75.7030204 78.25425339 77.81480217 C81.20743039 80.76231485 84.14799553 83.72210449 87.08740234 86.68334961 C87.96531433 87.55675995 88.84322632 88.43017029 89.7477417 89.33004761 C90.54668854 90.13889908 91.34563538 90.94775055 92.16879272 91.78111267 C92.8644956 92.47924544 93.56019848 93.17737822 94.27698326 93.89666653 C97.46570889 97.78923078 98.29142852 101.48570171 98.3125 106.4375 C98.32925781 107.34371094 98.34601563 108.24992187 98.36328125 109.18359375 C97.60034152 115.09842759 94.37866168 118.99439865 90.25317383 123.08740234 C89.78456436 123.55644989 89.3159549 124.02549744 88.83314514 124.50875854 C87.29811676 126.04171383 85.75277528 127.56379453 84.20703125 129.0859375 C83.13449186 130.15287567 82.06261734 131.22048257 80.99137878 132.28872681 C78.18185594 135.08684234 75.36343906 137.87582756 72.54302979 140.66296387 C69.66189797 143.51330589 66.7893305 146.37225076 63.91601562 149.23046875 C58.28565809 154.82873478 52.64586885 160.41737773 47 166 C40.59754296 160.72150195 34.77460144 154.90922026 28.92407227 149.03759766 C27.81982051 147.93306341 26.71534768 146.82875015 25.610672 145.72463989 C22.62960009 142.74385352 19.65160975 139.76000593 16.67418408 136.77557802 C13.55566184 133.65078158 10.43428541 130.5288388 7.31321716 127.40658569 C1.41114033 121.5014075 -4.48838392 115.59368603 -10.38698393 109.68503511 C-17.10571166 102.95510905 -23.82729747 96.22804062 -30.54911888 89.50120473 C-44.3692505 75.67063579 -58.18580834 61.83650174 -72 48 C-70.89364409 44.68093226 -70.1066802 44.01391575 -67.47900391 41.85229492 C-62.84774348 37.92015702 -58.5970978 33.68948016 -54.3359375 29.36328125 C-52.70325861 27.71796636 -51.07044204 26.07278809 -49.4375 24.42773438 C-46.89681463 21.86218377 -44.35777259 19.29504696 -41.82128906 16.7253418 C-39.35142303 14.22523348 -36.87534069 11.73141514 -34.3984375 9.23828125 C-33.64517181 8.47155594 -32.89190613 7.70483063 -32.11581421 6.91487122 C-22.48674775 -2.75972996 -12.81894666 -8.29988781 0 0 Z " fill="#fff" transform="translate(414,304)"/>
</svg>
